<?xml version="1.0" encoding="utf-8"?>
<!-- Generator: Adobe Illustrator 19.0.1, SVG Export Plug-In . SVG Version: 6.00 Build 0)  -->
<svg version="1.1" id="Layer_1" xmlns="http://www.w3.org/2000/svg" xmlns:xlink="http://www.w3.org/1999/xlink" x="0px" y="0px"
	 viewBox="0 0 100 100" enable-background="new 0 0 100 100" xml:space="preserve">
<g>
	<defs>
		<path id="SVGID_11_" d="M100,76.3c0,4-3.3,7.2-7.2,7.2H7.2c-4,0-7.2-3.3-7.2-7.2V23.7c0-4,3.3-7.2,7.2-7.2h85.5
			c4,0,7.2,3.3,7.2,7.2V76.3z"/>
	</defs>
	<clipPath id="SVGID_106_">
		<use xlink:href="#SVGID_11_"  overflow="visible"/>
	</clipPath>
	<g clip-path="url(#SVGID_106_)">
		<g>
			<g>
				<polygon fill="#FFFFFF" points="0,52.6 0,57.8 100,57.8 100,52.6 50.5,52.6 				"/>
			</g>
			<g>
				<rect x="50.5" y="42.3" fill="#FFFFFF" width="49.5" height="5.2"/>
			</g>
			<g>
				<rect x="0" y="63" fill="#FFFFFF" width="100" height="5.2"/>
			</g>
			<g>
				<path fill="#FFFFFF" d="M0,75.1c0,1.2,0.3,2.3,0.7,3.4h98.6c0.4-1,0.7-2.2,0.7-3.4v-1.8H0V75.1z"/>
			</g>
			<g>
				<path fill="#FFFFFF" d="M99.3,21.7H50.5v5.2H100v-1.8C100,23.9,99.7,22.7,99.3,21.7z"/>
			</g>
			<g>
				<rect x="50.5" y="32" fill="#FFFFFF" width="49.5" height="5.2"/>
			</g>
		</g>
		<g>
			<g>
				<path fill="#DE1A30" d="M91.5,16.6h-41v5.1h48.8C98,18.7,95,16.6,91.5,16.6z"/>
			</g>
			<g>
				<rect x="50.5" y="26.8" fill="#DE1A30" width="49.5" height="5.2"/>
			</g>
			<g>
				<rect x="50.5" y="37.2" fill="#DE1A30" width="49.5" height="5.2"/>
			</g>
			<g>
				<rect x="50.5" y="47.5" fill="#DE1A30" width="49.5" height="5.2"/>
			</g>
			<g>
				<rect x="0" y="57.8" fill="#DE1A30" width="100" height="5.2"/>
			</g>
			<g>
				<rect x="0" y="68.1" fill="#DE1A30" width="100" height="5.2"/>
			</g>
			<g>
				<path fill="#DE1A30" d="M8.5,83.6h83c3.5,0,6.5-2.1,7.8-5.1H0.7C2,81.4,5,83.6,8.5,83.6z"/>
			</g>
		</g>
		<g>
			<path fill="#DE1A30" d="M107.2,28.3v-2v-2v-2v-2v-2v-2H50.5c0,0,0,2.4,0,3.2v10.5h56.7V28.3z"/>
		</g>
		<g>
			<path fill="#FFFFFF" d="M107.2,42.1v-2v-2v-2v-2v-2v-2H50.5c0,0,0,2.4,0,3.2V44h56.7V42.1z"/>
		</g>
		<g>
			<path fill="#FFFFFF" d="M107.2,69.5v-2v-2v-2v-2v-2v-2H-6.1c0,0,0,2.4,0,3.2v10.5h113.3V69.5z"/>
		</g>
		<g>
			<path fill="#DE1A30" d="M107.2,55.8v-2v-2v-2v-2v-2v-2H50.5c0,0,0,2.4,0,3.2v10.5h56.7V55.8z"/>
		</g>
		<g>
			<path fill="#DE1A30" d="M107.2,83.3v-2v-2v-2v-2v-2v-2H-6.1c0,0,0,2.4,0,3.2v10.5h113.3V83.3z"/>
		</g>
		<g>
			<path fill="#112C67" d="M50.5,47.5v-5.2v-5.2V32v-5.2v-5.2v-5.1h-42c-2.5,0-4.8,1.1-6.4,2.9L2,19.5C0.8,21,0,22.9,0,25v32.7h50.5
				V47.5z"/>
		</g>
		<g>
			<g>
				<polygon fill="#FFFFFF" points="8.9,32.3 12.5,29.7 16.1,32.3 14.7,28.1 18.3,25.5 13.9,25.5 12.5,21.3 11.1,25.5 6.7,25.5 
					10.3,28.1 				"/>
			</g>
			<g>
				<polygon fill="#FFFFFF" points="33.9,32.3 37.5,29.7 41,32.3 39.7,28.1 43.3,25.5 38.8,25.5 37.5,21.3 36.1,25.5 31.7,25.5 
					35.2,28.1 				"/>
			</g>
			<g>
				<polygon fill="#FFFFFF" points="26.9,35.6 25.5,31.3 24.1,35.6 19.7,35.6 23.3,38.2 21.9,42.4 25.5,39.8 29.1,42.4 27.7,38.2 
					31.3,35.6 				"/>
			</g>
			<g>
				<polygon fill="#FFFFFF" points="14.4,46.2 13,42 11.6,46.2 7.2,46.2 10.8,48.8 9.4,53.1 13,50.5 16.6,53.1 15.2,48.8 18.8,46.2 
									"/>
			</g>
			<g>
				<polygon fill="#FFFFFF" points="43.8,46.2 39.3,46.2 38,42 36.6,46.2 32.2,46.2 35.7,48.8 34.4,53.1 38,50.5 41.5,53.1 
					40.2,48.8 				"/>
			</g>
		</g>
	</g>
</g>
</svg>
