<?xml version="1.0" encoding="utf-8"?>
<!-- Generator: Adobe Illustrator 19.0.1, SVG Export Plug-In . SVG Version: 6.00 Build 0)  -->
<svg version="1.1" id="Layer_1" xmlns="http://www.w3.org/2000/svg" xmlns:xlink="http://www.w3.org/1999/xlink" x="0px" y="0px"
	 viewBox="0 0 100 100" enable-background="new 0 0 100 100" xml:space="preserve">
<g>
	<path fill="#FFFFFF" d="M93.5,68h-3h-3.1c-0.7-18-14.3-33-31.9-35.6c1.2-1.3,1.9-3,1.9-5c0-4.1-3.3-7.4-7.5-7.4s-7.5,3.4-7.5,7.5
		c0,1.9,0.7,3.6,1.9,4.9C26.9,35,13.2,50,12.5,68H9.5h-3C5.7,68,5,68.7,5,69.5S5.7,71,6.5,71h2.4l7.9,8.5c0.3,0.3,0.7,0.5,1.1,0.5
		h63.7c0.4,0,0.8-0.1,1-0.4l8.6-8.6h2.4c0.8,0,1.5-0.7,1.5-1.5S94.3,68,93.5,68z M45.4,27.5c0-2.5,2-4.6,4.6-4.6s4.6,2,4.6,4.6
		S52.5,32,50,32S45.4,30,45.4,27.5z M50,34.9C68.6,34.9,83.8,50,84.6,68H15.4C16.2,50,31.4,34.9,50,34.9z M80.9,77H18.4l-5.7-6H87
		L80.9,77z"/>
	<path fill="#FFFFFF" d="M50,41c-9.5,0-18.4,4.7-23.7,12.7c-0.4,0.7-0.3,1.6,0.4,2c0.2,0.2,0.5,0.2,0.8,0.2c0.5,0,0.9-0.2,1.2-0.6
		c4.8-7.1,12.7-11.4,21.3-11.4c0.8,0,1.5-0.6,1.5-1.5S50.8,41,50,41z"/>
</g>
</svg>
