<?xml version="1.0" encoding="utf-8"?>
<!-- Generator: Adobe Illustrator 19.0.1, SVG Export Plug-In . SVG Version: 6.00 Build 0)  -->
<svg version="1.1" id="Layer_1" xmlns="http://www.w3.org/2000/svg" xmlns:xlink="http://www.w3.org/1999/xlink" x="0px" y="0px"
	 viewBox="0 0 365 100" enable-background="new 0 0 365 100" xml:space="preserve">
<g>
	<g>
		<path fill="#FFFFFF" d="M67.8,38.6l8.2,22.6c3.3,9-0.1,15-8,17.9L24.1,95l-5.2-14.3l30.5-11.1c5.4-2,6.6-5.4,4.9-10.1L51.1,51
			C48.2,43,51,35.5,59,32.5l-1-2.8l-12,4.4c-4.4,1.6-6.9,5.3-4.9,10.6l3.1,8.4c3.3,9-1,15.7-8.9,18.6L17.9,78l-5.2-14.3l4.7-1.7
			c5.3-1.9,6.7-6.7,5.2-10.8l-3.1-8.4C17,35.9,18.8,27.8,28,24.4l24.7-9l-1-2.6L14.3,26.5c-4.8,1.8-6.5,6-4.9,10.5l8.1,22.4l-5.6,2
			L3.8,39C0.4,29.7,3.6,24,12.2,20.8L55.5,5l5.1,14.1L30.1,30.2c-4.8,1.8-6.2,6.9-4.8,10.6l3.1,8.5c2.9,8,0.2,15.2-7.8,18.1l1,2.8
			L33.2,66c4.3-1.6,7.1-5.4,5.1-10.8l-3.1-8.4c-2.9-8-0.5-15,8.7-18.3L61.7,22l5.1,14.1l-4.7,1.7c-4,1.4-7,5.6-5,11l3.1,8.5
			c3.3,9-0.8,15.3-8.7,18.2l-24.7,9l1,2.7l38-13.8c4.7-1.7,6.1-5.4,4.5-10L62,40.7L67.8,38.6z"/>
	</g>
	<g>
		<path fill="#FFFFFF" d="M117.2,43.7h22.2v-8.5h-31.1c-2.6,0-5.3,2.8-5.3,5.5v6.8v6.9c0,0.4,0.1,0.9,0.2,1.3c0.7,2.2,3,4.2,5.1,4.2
			h16.9v8.2H103v8.1l31.2-0.2c2.6,0,5.2-2.4,5.2-5.1V57.2c0-0.5-0.1-1-0.3-1.5c-0.7-2.1-2.9-3.9-5.1-3.9h-16.9v-4.3V43.7z"/>
		<path fill="#FFFFFF" d="M175.2,35.2h-12h-13.7c-2.8,0-5.3,2.7-5.4,5.2v7.1v8.2v15.1c0,2.7,2.7,5.4,5.4,5.2h25.8
			c2.7,0,5.3-2.6,5.3-5.2V55.7v-8.2v-7.1C180.6,37.9,178,35.2,175.2,35.2z M166.5,47.5v8.2V68h-8.1V55.7v-8.2v-4.1h8.1V47.5z"/>
		<path fill="#FFFFFF" d="M221.6,73.5V61.2c0-2.7-2.7-5.5-5.4-5.5c2.6,0.2,5.3-2.7,5.4-5.3v-2.9v-7.1c0-2.6-2.7-5.2-5.4-5.2H185
			v12.3v8.2v20.4h14.4V59.8h8v15.1c0,0.8,0.7,1.3,1.5,1.3h14.3v-1.3C222.5,74.8,221.6,74.2,221.6,73.5z M207.4,47.5v4.1h-8v-4.1
			v-4.1h8V47.5z"/>
		<polygon fill="#FFFFFF" points="225.9,35.1 225.9,47.5 225.9,55.7 225.9,76.3 240.3,76.3 240.3,55.7 240.3,47.5 240.3,35.1 		"/>
		<path fill="#FFFFFF" d="M275.4,35.2h-25.8c-2.7,0-5.3,2.7-5.3,5.4v6.9v8.2V76h14.2V61h8.1L266.6,76h14.2V55.7v-3.9v-4.4v-6.9
			C280.8,38,278.2,35.2,275.4,35.2z M266.6,47.5v5.6h-8v-5.6v-4.1h8V47.5z"/>
		<polygon fill="#FFFFFF" points="313.5,35.2 313.6,47.5 313.6,55.7 313.6,55.9 313.5,55.7 308.3,47.5 300.5,35.2 285,35.2 
			285,47.5 285.1,55.7 285.1,76.1 293.2,76.1 293.2,55.7 293.2,55.7 293.3,55.7 306.5,76.1 321.4,76 321.5,55.7 321.5,47.5 
			321.6,35.2 		"/>
		<path fill="#FFFFFF" d="M357.4,35.2h-25.8c-2.7,0-5.6,2.8-5.6,5.5v6.8v8.2v20.4h14.2V61h8l0.1,15.1h14.2V55.7V52v-4.4v-6.8
			C362.5,38.1,360.1,35.2,357.4,35.2z M348.2,47.5v5.4h-8v-5.4v-4.3h8V47.5z"/>
	</g>
</g>
</svg>
