<?xml version="1.0" encoding="utf-8"?>
<!-- Generator: Adobe Illustrator 19.0.1, SVG Export Plug-In . SVG Version: 6.00 Build 0)  -->
<svg version="1.1" id="Layer_1" xmlns="http://www.w3.org/2000/svg" xmlns:xlink="http://www.w3.org/1999/xlink" x="0px" y="0px"
	 viewBox="0 0 100 100" enable-background="new 0 0 100 100" xml:space="preserve">
<g>
	<path fill="#FFFFFF" d="M95,51.2l-9.2-7.7l-9.2-15.4H59.2v-0.3v-9.4H5v57.1h9.7c1.2,3.9,4.5,6,8.4,6s7.2-2.1,8.4-6h37.2
		c1.2,3.9,4.5,6,8.4,6c3.9,0,7.2-2.1,8.4-6H95V51.2z M74.9,31l8.6,14.4l8.6,7.1v11.4H59.2V31H74.9z M56.3,21.4v6.5v3v33.2H7.9V21.4
		H56.3z M7.9,72.6v-5.8h8.7c-1.5,1.9-2.4,3.6-2.4,5.9c0,0,0-0.1,0-0.1H7.9z M23.2,78.9c-3.3,0-6.1-2.7-6.1-6.1
		c0-3.3,2.7-6.1,6.1-6.1s6.1,2.7,6.1,6.1C29.2,76.2,26.5,78.9,23.2,78.9z M32.1,72.6C32.1,72.6,32.1,72.8,32.1,72.6
		c0-2.2-0.9-3.9-2.4-5.8h40.9c-1.5,1.9-2.4,3.6-2.4,5.9c0,0,0-0.1,0-0.1H32.1z M77.2,78.9c-3.3,0-6.1-2.7-6.1-6.1
		c0-3.3,2.7-6.1,6.1-6.1c3.3,0,6.1,2.7,6.1,6.1C83.3,76.2,80.6,78.9,77.2,78.9z M86.2,72.6C86.2,72.6,86.2,72.8,86.2,72.6
		c0-2.2-0.9-3.9-2.4-5.8h8.3v5.8H86.2z"/>
	<polygon fill="#FFFFFF" points="70.3,36.8 75.9,48 78.5,46.7 72.1,33.9 67.9,33.9 67.9,36.8 	"/>
</g>
</svg>
