<?xml version="1.0" encoding="utf-8"?>
<!-- Generator: Adobe Illustrator 19.0.1, SVG Export Plug-In . SVG Version: 6.00 Build 0)  -->
<svg version="1.1" id="Layer_1" xmlns="http://www.w3.org/2000/svg" xmlns:xlink="http://www.w3.org/1999/xlink" x="0px" y="0px"
	 viewBox="0 0 100 100" enable-background="new 0 0 100 100" xml:space="preserve">
<path fill="#FFFFFF" d="M35.2,84.9c-9.5,0-18.8-2.7-26.8-7.9L5,74.9l4,0.5c8.2,0.9,16.1-1,22.7-5.5c-6.7-1.1-12.3-5.8-14.4-12.3
	L16.9,56l1.5,0.3c1.1,0.2,2.3,0.3,3.5,0.3c-6.3-2.9-10.6-9.3-10.6-16.5v-1.8l1.4,0.8c1.3,0.7,2.7,1.3,4.2,1.6
	c-3.4-3.4-5.4-8-5.4-12.9c0-3.2,0.8-6.3,2.4-9.1l0.7-1.2l0.8,1c8.3,10.2,20.4,16.5,33.5,17.5c-0.2-0.9-0.2-1.9-0.2-2.9
	c0-10,8.1-18.1,18.1-18.1c4.8,0,9.4,1.9,12.8,5.3c3.6-0.8,7-2.1,10.1-3.9l2.1-1.2L91,17.6c-0.9,2.9-2.6,5.5-4.8,7.6
	c2-0.5,4-1.1,5.9-2l2.9-1.3l-1.8,2.7c-2.3,3.4-5.1,6.4-8.4,8.8c0,0.6,0,1.2,0,1.8c0,12.1-4.7,24.3-12.8,33.5
	C65.6,76.1,53.9,84.9,35.2,84.9z M12.7,77.4c6.9,3.7,14.6,5.6,22.5,5.6C58.7,83.1,83,65.1,83,35.2c0-0.7,0-1.5,0-2.2l0-0.5l0.4-0.3
	c2.4-1.7,4.6-3.8,6.5-6.1c-2.3,0.8-4.7,1.3-7.1,1.6l-4.3,0.5l3.7-2.2c2.7-1.6,4.8-3.9,6.2-6.6c-2.8,1.4-5.8,2.4-8.9,3l-0.5,0.1
	l-0.4-0.4c-3.1-3.3-7.4-5.1-11.8-5.1c-8.9,0-16.2,7.3-16.2,16.2c0,1.3,0.1,2.5,0.4,3.7l0.3,1.2L50,38c-13.5-0.7-26.3-6.9-35.1-17.2
	c-1,2.2-1.6,4.5-1.6,7c0,5.4,2.7,10.5,7.2,13.5l2.7,1.8L20,43c-2.3-0.1-4.6-0.6-6.8-1.6c0.6,7.1,5.9,13.2,13,14.6l3.9,0.8l-3.8,1
	c-2.1,0.6-4.4,0.8-6.6,0.5c2.5,5.8,8.2,9.7,14.6,9.8l2.6,0l-2.1,1.6C28.5,74.9,20.8,77.5,12.7,77.4z"/>
</svg>
