<?xml version="1.0" encoding="utf-8"?>
<!-- Generator: Adobe Illustrator 19.0.1, SVG Export Plug-In . SVG Version: 6.00 Build 0)  -->
<svg version="1.1" id="Layer_1" xmlns="http://www.w3.org/2000/svg" xmlns:xlink="http://www.w3.org/1999/xlink" x="0px" y="0px"
	 viewBox="0 0 410 100" enable-background="new 0 0 410 100" xml:space="preserve">
<g>
	<path fill-rule="evenodd" clip-rule="evenodd" fill="#FFFFFF" d="M232.1,62.2c0,0.8-0.1,1.6-0.3,2.3c-0.9,3-4,5.5-7.8,5.5
		c-3.2,0-5.8-1.8-5.8-5.7c0-5.9,6.5-7.5,13.9-7.5V62.2L232.1,62.2z M243.6,51.9c0-9.7-4.1-18.2-18.2-18.2c-7.2,0-12.9,2-16,3.8
		l2.3,7.8c2.9-1.8,7.4-3.3,11.7-3.3c7.1,0,8.3,4,8.3,6.6v0.6c-15.5,0-25.3,5.3-25.3,16.3c0,6.7,5,12.9,13.7,12.9
		c5.3,0,9.8-2.1,12.5-5.5h0.3c0,0,1.8,7.4,11.5,4.6c-0.5-3.1-0.7-6.4-0.7-10.3V51.9L243.6,51.9z"/>
	<path fill-rule="evenodd" clip-rule="evenodd" fill="#FFFFFF" d="M2.3,20.5c0,0,10.1,41.5,11.7,48.2c1.9,7.9,5.3,10.8,15.1,8.8
		l6.3-25.7c1.6-6.4,2.7-10.9,3.7-17.4h0.2c0.7,6.6,1.8,11.1,3.1,17.5c0,0,2.6,11.7,3.9,17.8c1.3,6.1,5,10,14.6,7.9l15.1-57H63.8
		l-5.1,24.6C57.2,52.3,56,57.9,55,64.5h-0.2c-0.9-6.5-2-11.9-3.4-18.9l-5.4-25.1H33.4L27.7,45c-1.6,7.4-3.1,13.5-4.1,19.8h-0.2
		c-1-6-2.3-13.5-3.7-20.7c0,0-3.4-17.5-4.6-23.6H2.3L2.3,20.5z"/>
	<path fill-rule="evenodd" clip-rule="evenodd" fill="#FFFFFF" d="M98.9,62.2c0,0.8-0.1,1.6-0.3,2.3c-0.9,3-4,5.5-7.8,5.5
		c-3.2,0-5.7-1.8-5.7-5.7c0-5.9,6.5-7.5,13.8-7.5V62.2L98.9,62.2z M110.5,51.9c0-9.7-4.1-18.2-18.2-18.2c-7.2,0-12.9,2-16,3.8
		l2.3,7.8C81.4,43.5,86,42,90.3,42c7.1,0,8.3,4,8.3,6.6v0.6c-15.5,0-25.3,5.3-25.3,16.3c0,6.7,5,12.9,13.6,12.9
		c5.3,0,9.8-2.1,12.5-5.5h0.3c0,0,1.8,7.4,11.5,4.6c-0.5-3.1-0.7-6.4-0.7-10.3V51.9L110.5,51.9z"/>
	<polygon fill-rule="evenodd" clip-rule="evenodd" fill="#FFFFFF" points="129.8,65.4 129.8,20.5 118.2,20.5 118.2,77.5 129.8,77.5 
		129.8,65.4 	"/>
	<path fill-rule="evenodd" clip-rule="evenodd" fill="#FFFFFF" d="M281.2,20.5v42.1c0,5.8,1.1,9.9,3.4,12.3c2,2.2,5.4,3.6,9.4,3.6
		c3.4,0,6.8-0.6,8.4-1.2l-0.2-9c-1.2,0.3-2.5,0.5-4.4,0.5c-3.9,0-5.3-2.5-5.3-7.7V44.9h10.1V34h-10.1V20.5H281.2L281.2,20.5z"/>
	<path fill-rule="evenodd" clip-rule="evenodd" fill="#FFFFFF" d="M251.3,34.7v42.8h11.9V55.6c0-1.2,0.1-2.2,0.3-3.2
		c0.9-4.6,4.4-7.5,9.4-7.5c1.4,0,2.4,0.1,3.4,0.3V34c-0.9-0.2-1.5-0.3-2.6-0.3c-4.5,0-9.5,2.9-11.7,9h-0.3v-8.1H251.3L251.3,34.7z"
		/>
	<path fill-rule="evenodd" clip-rule="evenodd" fill="#FFFFFF" d="M137.9,34.7v42.8h11.6V52.4c0-1.2,0.1-2.4,0.6-3.5
		c1-2.5,3.3-5.5,7.1-5.5c4.7,0,6.9,4,6.9,9.7v24.4h11.6V52.1c0-1.1,0.2-2.5,0.5-3.5c1-2.9,3.5-5.2,7-5.2c4.8,0,7,3.9,7,10.7v23.5
		h11.6V52.3c0-13.3-6.8-18.6-14.4-18.6c-3.4,0-6,0.8-8.4,2.3c-2,1.2-3.8,3-5.4,5.3h-0.2c-1.8-4.6-6.2-7.7-11.8-7.7
		c-7.2,0-10.5,3.7-12.5,6.8h-0.2v-5.8H137.9L137.9,34.7z"/>
	<path fill-rule="evenodd" clip-rule="evenodd" fill="#FFFFFF" d="M367.6,35.3c2.1,0,3.8-1.1,4.1-2.5l2.1-23.5
		c0-2.3-2.7-4.2-6.2-4.2c-3.4,0-6.2,1.9-6.2,4.2l2.1,23.5C363.8,34.2,365.5,35.3,367.6,35.3L367.6,35.3L367.6,35.3z"/>
	<path fill-rule="evenodd" clip-rule="evenodd" fill="#FFFFFF" d="M354.9,42.6c1.1-1.8,1-3.9-0.1-4.8l-19.4-13.6
		c-2-1.2-5,0.2-6.7,3.2c-1.7,3-1.4,6.3,0.6,7.4l21.4,10C352,45.4,353.9,44.5,354.9,42.6L354.9,42.6L354.9,42.6z"/>
	<path fill-rule="evenodd" clip-rule="evenodd" fill="#FFFFFF" d="M380.4,42.6c1.1,1.8,2.9,2.8,4.2,2.3l21.4-10
		c2-1.2,2.3-4.5,0.6-7.4c-1.7-3-4.7-4.4-6.7-3.2l-19.3,13.6C379.4,38.8,379.3,40.8,380.4,42.6L380.4,42.6L380.4,42.6z"/>
	<path fill-rule="evenodd" clip-rule="evenodd" fill="#FFFFFF" d="M367.6,64.7c2.1,0,3.8,1.1,4.1,2.5l2.1,23.6
		c0,2.3-2.7,4.2-6.2,4.2c-3.4,0-6.2-1.9-6.2-4.2l2.1-23.6C363.8,65.8,365.5,64.7,367.6,64.7L367.6,64.7L367.6,64.7z"/>
	<path fill-rule="evenodd" clip-rule="evenodd" fill="#FFFFFF" d="M380.4,57.4c1.1-1.8,2.9-2.8,4.2-2.3l21.4,10
		c2,1.2,2.3,4.5,0.6,7.4c-1.7,3-4.7,4.4-6.7,3.2l-19.3-13.6C379.4,61.2,379.3,59.2,380.4,57.4L380.4,57.4L380.4,57.4z"/>
	<path fill-rule="evenodd" clip-rule="evenodd" fill="#FFFFFF" d="M354.9,57.4c1.1,1.8,1,3.9-0.1,4.8l-19.4,13.6
		c-2,1.2-5-0.2-6.7-3.2c-1.7-3-1.4-6.3,0.6-7.5l21.4-10C352,54.6,353.9,55.5,354.9,57.4L354.9,57.4L354.9,57.4z"/>
</g>
</svg>
